<svg width="30" height="24" viewBox="0 0 30 24" fill="none" xmlns="http://www.w3.org/2000/svg">
<mask id="mask0" mask-type="alpha" maskUnits="userSpaceOnUse" x="7" y="5" width="16" height="13">
<path fill-rule="evenodd" clip-rule="evenodd" d="M22.5796 7.75793C22.3756 7.35171 22.1036 7.00762 21.6584 6.66352C21.2133 6.31943 20.7682 6.10915 20.2427 5.95144C19.7357 5.79851 19.1484 5.69337 18.3014 5.6647L18.287 5.66421C17.4451 5.63592 17.1639 5.62646 15 5.62646C12.8238 5.62646 12.5518 5.63124 11.6986 5.6647C10.8454 5.69337 10.2643 5.79851 9.75734 5.95144C9.23184 6.10915 8.78671 6.31943 8.34158 6.66352C7.89645 7.00762 7.62442 7.35171 7.4204 7.75793C7.22257 8.14981 7.08655 8.60382 7.04946 9.25856L7.04883 9.26967C7.01223 9.92049 7 10.1378 7 11.8106C7 13.4928 7.00618 13.7031 7.04946 14.3626C7.08655 15.0221 7.22257 15.4713 7.4204 15.8632C7.62442 16.2695 7.89645 16.6135 8.34158 16.9576C8.78671 17.3017 9.23184 17.512 9.75734 17.6697C10.2643 17.8226 10.8516 17.9278 11.6986 17.9565L11.713 17.9569C12.5549 17.9852 12.8361 17.9947 15 17.9947C17.1762 17.9947 17.4482 17.9899 18.3014 17.9565C19.1546 17.9278 19.7357 17.8226 20.2427 17.6697C20.7682 17.512 21.2133 17.3017 21.6584 16.9576C22.1036 16.6135 22.3756 16.2695 22.5796 15.8632C22.7774 15.4713 22.9134 15.0173 22.9505 14.3626L22.9512 14.3515C22.9878 13.7007 23 13.4833 23 11.8106C23 10.1283 22.9938 9.91807 22.9505 9.25856C22.9134 8.59905 22.7774 8.14981 22.5796 7.75793ZM20.9548 14.0947C20.9209 14.645 20.8023 14.9463 20.7006 15.1428C20.5706 15.4049 20.4068 15.597 20.1525 15.7936C19.8983 15.9901 19.6554 16.1124 19.3107 16.2172C19.0508 16.2958 18.6667 16.3875 17.9548 16.4137L17.918 16.415C17.1731 16.4402 16.9235 16.4487 15 16.4487C13.0452 16.4487 12.8136 16.4443 12.0452 16.4137C11.3333 16.3875 10.9435 16.2958 10.6893 16.2172C10.3503 16.1168 10.1017 15.9901 9.84746 15.7936C9.59322 15.597 9.43503 15.4092 9.29944 15.1428C9.19774 14.9419 9.0791 14.645 9.0452 14.0947L9.04386 14.0711C9.011 13.4914 9 13.2973 9 11.8106C9 10.3039 9.00565 10.1204 9.0452 9.52647C9.0791 8.97619 9.19774 8.67485 9.29944 8.47832C9.42938 8.21628 9.59322 8.02412 9.84746 7.82759C10.1017 7.63106 10.3446 7.50878 10.6893 7.40396C10.9492 7.32535 11.3333 7.23364 12.0452 7.20743L12.0758 7.2064C12.8257 7.181 13.0767 7.17249 15 7.17249C16.9492 7.17249 17.1864 7.17686 17.9548 7.20743C18.6667 7.23364 19.0565 7.32535 19.3107 7.40396C19.6497 7.50441 19.8983 7.63106 20.1525 7.82759C20.4068 8.02412 20.565 8.21191 20.7006 8.47832C20.8023 8.67922 20.9209 8.97619 20.9548 9.52647L20.9561 9.5501V9.55012C20.989 10.1298 21 10.3239 21 11.8106C21 13.3029 20.9889 13.4971 20.9558 14.0778L20.9548 14.0947ZM20 8.71852C20 9.14545 19.5523 9.49154 19 9.49154C18.4477 9.49154 18 9.14545 18 8.71852C18 8.2916 18.4477 7.94551 19 7.94551C19.5523 7.94551 20 8.2916 20 8.71852ZM15 8.71852C12.7925 8.71852 11 10.1041 11 11.8106C11 13.517 12.7925 14.9026 15 14.9026C17.2075 14.9026 19 13.517 19 11.8106C19 10.1041 17.2075 8.71852 15 8.71852ZM13 11.8106C13 12.6659 13.8981 13.3566 15 13.3566C16.1019 13.3566 17 12.6623 17 11.8106C17 10.9553 16.1065 10.2646 15 10.2646C13.8935 10.2646 13 10.9588 13 11.8106Z" fill="white"/>
</mask>
<g mask="url(#mask0)">
<rect x="2" y="1.76147" width="26" height="20.0984" fill="#D8D8D8"/>
</g>
</svg>
