<svg width="30" height="24" viewBox="0 0 30 24" fill="none" xmlns="http://www.w3.org/2000/svg">
<mask id="mask0" mask-type="alpha" maskUnits="userSpaceOnUse" x="6" y="6" width="18" height="12">
<path fill-rule="evenodd" clip-rule="evenodd" d="M24 7.77166C23.3378 8.00491 22.6266 8.16233 21.8788 8.23235C22.6412 7.87022 23.2269 7.29671 23.5032 6.61348C22.7892 6.9484 21.9992 7.19279 21.1581 7.32346C20.4841 6.75485 19.5242 6.39941 18.4614 6.39941C16.4218 6.39941 14.7693 7.70967 14.7693 9.32631C14.7693 9.55554 14.8014 9.77942 14.8644 9.99348C11.7952 9.87129 9.07427 8.70597 7.25244 6.93502C6.93511 7.36761 6.75281 7.87022 6.75281 8.40672C6.75281 9.42264 7.40491 10.3182 8.39516 10.8435C7.79032 10.8279 7.22093 10.6968 6.72299 10.4774C6.72243 10.4894 6.72243 10.5023 6.72243 10.5139C6.72243 11.9326 7.99512 13.1157 9.68473 13.3846C9.37528 13.4511 9.04895 13.4872 8.71193 13.4872C8.47337 13.4872 8.24269 13.4689 8.01763 13.435C8.48687 14.5972 9.85128 15.4437 11.4666 15.4678C10.2035 16.2527 8.61122 16.7214 6.8811 16.7214C6.5829 16.7214 6.28863 16.7076 6 16.6804C7.63391 17.5099 9.57502 17.9946 11.6607 17.9946C18.4529 17.9946 22.168 13.5345 22.168 9.66614C22.168 9.53949 22.1635 9.41283 22.1568 9.28707C22.8787 8.87455 23.5043 8.35945 24 7.77166Z" fill="white"/>
</mask>
<g mask="url(#mask0)">
<rect x="2" y="1.76147" width="26" height="20.0984" fill="#D8D8D8"/>
</g>
</svg>
